<?xml version="1.0" encoding="utf-8"?>
<!-- Generator: Adobe Illustrator 23.0.3, SVG Export Plug-In . SVG Version: 6.00 Build 0)  -->
<svg version="1.1" id="" focusable="false" xmlns="http://www.w3.org/2000/svg" xmlns:xlink="http://www.w3.org/1999/xlink"
	 x="0px" y="0px"  xml:space="preserve" >

	<symbol id="icon_phone" viewBox="0 0 42.93 56">
		<path d="M32.55.51,10.5,6.3a4.81,4.81,0,0,0-3.45,5.91l11.1,40.54a4.93,4.93,0,0,0,6,3.44L46.2,50.4a4.81,4.81,0,0,0,3.45-5.91L38.55,4A4.93,4.93,0,0,0,32.55.51Zm1.77,49.67a3.29,3.29,0,0,1-4-2.29,3.2,3.2,0,0,1,2.3-4,3.28,3.28,0,0,1,4,2.29A3.2,3.2,0,0,1,34.32,50.18Zm8.15-13.42a1.21,1.21,0,0,1-.86,1.48L21.92,43.4a1.23,1.23,0,0,1-1.5-.85L12.1,12.14A1.2,1.2,0,0,1,13,10.66L32.65,5.5a1.24,1.24,0,0,1,1.5.86Z" transform="translate(-6.88 -0.35)" fill-rule="evenodd"/>
	</symbol>

	<symbol id="icon_mail" viewBox="0 0 49.2 40.11">
		<path d="M44.06,8.34,7.38,14A4.32,4.32,0,0,0,3.8,18.91l4,25.79a4.32,4.32,0,0,0,4.89,3.66l36.68-5.62a4.32,4.32,0,0,0,3.58-5L49,12A4.32,4.32,0,0,0,44.06,8.34Zm.66,4.3.56,3.66c-1.73,1.94-4.49,5-10.41,11.35-1.3,1.42-3.81,4.72-5.86,5s-5.42-2-7.09-3c-7.56-4.33-11.1-6.39-13.33-7.73L8,18.26ZM12,44.06,9.44,27.43c2.27,1.33,5.49,3.18,10.38,6C22,34.66,25.88,37.55,29.67,37s6.59-4.42,8.33-6.31c3.83-4.15,6.35-6.88,8.12-8.82l2.55,16.62Z" transform="translate(-3.75 -8.29)" fill-rule="evenodd"/>
	</symbol>

	<symbol id="icon_facebook" viewBox="0 0 56.7 56.7">
		<path d="M40.43,21.739h-7.645v-5.014c0-1.883,1.248-2.322,2.127-2.322c0.877,0,5.395,0,5.395,0V6.125l-7.43-0.029  c-8.248,0-10.125,6.174-10.125,10.125v5.518h-4.77v8.53h4.77c0,10.947,0,24.137,0,24.137h10.033c0,0,0-13.32,0-24.137h6.77  L40.43,21.739z"/>
	</symbol>

	<symbol id="icon_twitter" viewBox="0 0 512 512" >
		<path d="M492,109.5c-17.4,7.7-36,12.9-55.6,15.3c20-12,35.4-31,42.6-53.6c-18.7,11.1-39.4,19.2-61.5,23.5  C399.8,75.8,374.6,64,346.8,64c-53.5,0-96.8,43.4-96.8,96.9c0,7.6,0.8,15,2.5,22.1C172,179,100.6,140.4,52.9,81.7  c-8.3,14.3-13.1,31-13.1,48.7c0,33.6,17.1,63.3,43.1,80.7C67,210.7,52,206.3,39,199c0,0.4,0,0.8,0,1.2c0,47,33.4,86.1,77.7,95  c-8.1,2.2-16.7,3.4-25.5,3.4c-6.2,0-12.3-0.6-18.2-1.8c12.3,38.5,48.1,66.5,90.5,67.3c-33.1,26-74.9,41.5-120.3,41.5  c-7.8,0-15.5-0.5-23.1-1.4C62.9,432,113.8,448,168.4,448C346.6,448,444,300.3,444,172.2c0-4.2-0.1-8.4-0.3-12.5  C462.6,146,479,128.9,492,109.5z"/>
	</symbol>

	<symbol id="icon_instagram" viewBox="0 0 56.7 56.7">
		<path d="M28.2,16.7c-7,0-12.8,5.7-12.8,12.8c0,7.1,5.7,12.8,12.8,12.8c7.1,0,12.8-5.8,12.8-12.8S35.2,16.7,28.2,16.7z M28.2,37.7
			c-4.5,0-8.2-3.7-8.2-8.2s3.7-8.2,8.2-8.2s8.2,3.7,8.2,8.2S32.7,37.7,28.2,37.7z M41.5,13.5c-1.6,0-2.9,1.3-2.9,2.9s1.3,2.9,2.9,2.9
			s2.9-1.3,2.9-2.9S43.1,13.5,41.5,13.5z M49,8.9c-2.6-2.7-6.3-4.1-10.5-4.1H17.9c-8.7,0-14.5,5.8-14.5,14.5v20.5
			c0,4.3,1.4,8,4.2,10.7c2.7,2.6,6.3,3.9,10.4,3.9h20.4c4.3,0,7.9-1.4,10.5-3.9c2.7-2.6,4.1-6.3,4.1-10.6V19.3
			C53,15.1,51.6,11.5,49,8.9z M48.6,39.9c0,3.1-1.1,5.6-2.9,7.3s-4.3,2.6-7.3,2.6H18c-3,0-5.5-0.9-7.3-2.6C8.9,45.4,8,42.9,8,39.8
			V19.3c0-3,0.9-5.5,2.7-7.3c1.7-1.7,4.3-2.6,7.3-2.6h20.6c3,0,5.5,0.9,7.3,2.7c1.7,1.8,2.7,4.3,2.7,7.2V39.9z"/>
	</symbol>

	<symbol id="icon_pinterest" viewBox="0 0 56.7 56.7">
		<path d="M30.374,4.622c-13.586,0-20.437,9.74-20.437,17.864c0,4.918,1.862,9.293,5.855,10.922c0.655,0.27,1.242,0.01,1.432-0.715  c0.132-0.5,0.445-1.766,0.584-2.295c0.191-0.717,0.117-0.967-0.412-1.594c-1.151-1.357-1.888-3.115-1.888-5.607  c0-7.226,5.407-13.695,14.079-13.695c7.679,0,11.898,4.692,11.898,10.957c0,8.246-3.649,15.205-9.065,15.205  c-2.992,0-5.23-2.473-4.514-5.508c0.859-3.623,2.524-7.531,2.524-10.148c0-2.34-1.257-4.292-3.856-4.292  c-3.058,0-5.515,3.164-5.515,7.401c0,2.699,0.912,4.525,0.912,4.525s-3.129,13.26-3.678,15.582  c-1.092,4.625-0.164,10.293-0.085,10.865c0.046,0.34,0.482,0.422,0.68,0.166c0.281-0.369,3.925-4.865,5.162-9.359  c0.351-1.271,2.011-7.859,2.011-7.859c0.994,1.896,3.898,3.562,6.986,3.562c9.191,0,15.428-8.379,15.428-19.595  C48.476,12.521,41.292,4.622,30.374,4.622z"/>
	</symbol>

	<symbol id="icon_youtube" viewBox="0 0 56.7 56.7">
		<path d="M43.9,28.2H12.8c-4.9,0-9,4-9,9v7.2c0,4.9,4,9,9,9h31.1c4.9,0,9-4,9-9v-7.2C52.9,32.2,48.9,28.2,43.9,28.2z M19.3,33.8h-2.9
			v14.4h-2.8V33.8h-2.9v-2.4h8.6V33.8z M27.5,48.2H25v-1.4c-0.5,0.5-0.9,0.9-1.4,1.1c-0.5,0.3-1,0.4-1.4,0.4c-0.6,0-1-0.2-1.3-0.6
			c-0.3-0.4-0.4-0.9-0.4-1.7V35.8h2.5v9.5c0,0.3,0.1,0.5,0.2,0.6c0.1,0.1,0.3,0.2,0.5,0.2c0.2,0,0.4-0.1,0.7-0.3
			c0.3-0.2,0.5-0.4,0.8-0.7v-9.4h2.5V48.2z M35.9,47.7c-0.4,0.5-1,0.7-1.7,0.7c-0.5,0-0.9-0.1-1.3-0.3c-0.4-0.2-0.7-0.5-1.1-0.8v1
			h-2.5V31.4h2.5v5.4c0.3-0.4,0.7-0.7,1.1-0.9c0.4-0.2,0.8-0.3,1.1-0.3c0.8,0,1.4,0.3,1.8,0.8c0.4,0.5,0.6,1.3,0.6,2.3v6.9h0
			C36.5,46.5,36.3,47.2,35.9,47.7z M45.1,42.3h-4.7v2.3c0,0.7,0.1,1.1,0.2,1.4c0.2,0.3,0.4,0.4,0.8,0.4c0.4,0,0.7-0.1,0.9-0.3
			c0.2-0.2,0.2-0.7,0.2-1.4v-0.6h2.6v0.6c0,1.3-0.3,2.2-0.9,2.9c-0.6,0.6-1.5,1-2.8,1c-1.1,0-2-0.3-2.6-1c-0.6-0.7-1-1.6-1-2.8v-5.6
			c0-1.1,0.4-2,1.1-2.6c0.7-0.7,1.6-1,2.7-1c1.1,0,2,0.3,2.6,0.9c0.6,0.6,0.9,1.5,0.9,2.7V42.3z M41.5,37.6c-0.4,0-0.7,0.1-0.8,0.3
			c-0.2,0.2-0.3,0.6-0.3,1.1v1.3h2.2v-1.3c0-0.5-0.1-0.9-0.3-1.1C42.1,37.8,41.8,37.6,41.5,37.6z M32.9,37.6c-0.2,0-0.4,0-0.5,0.1
			c-0.2,0.1-0.3,0.2-0.5,0.4v7.7c0.2,0.2,0.4,0.4,0.6,0.4c0.2,0.1,0.4,0.1,0.6,0.1c0.3,0,0.5-0.1,0.7-0.3c0.1-0.2,0.2-0.5,0.2-0.9
			v-6.4c0-0.4-0.1-0.7-0.3-1C33.5,37.7,33.2,37.6,32.9,37.6z M16.9,23.9H20v-7.7l3.7-10.8h-3.2l-1.9,7.4h-0.2l-2-7.4h-3.2l3.7,11.2
			V23.9z M27.9,24.2c1.3,0,2.3-0.3,3-1c0.7-0.7,1.1-1.6,1.1-2.8v-7.1c0-1-0.4-1.9-1.1-2.6c-0.7-0.7-1.7-1-2.8-1c-1.3,0-2.3,0.3-3,0.9
			c-0.8,0.6-1.1,1.5-1.1,2.5v7.1c0,1.2,0.4,2.1,1.1,2.8C25.7,23.9,26.7,24.2,27.9,24.2z M26.8,13.2L26.8,13.2c0-0.3,0.1-0.5,0.3-0.7
			c0.2-0.2,0.5-0.3,0.8-0.3c0.4,0,0.7,0.1,0.9,0.3c0.2,0.2,0.3,0.4,0.3,0.7v7.5c0,0.4-0.1,0.7-0.3,0.9c-0.2,0.2-0.5,0.3-0.9,0.3
			c-0.4,0-0.7-0.1-0.9-0.3c-0.2-0.2-0.3-0.5-0.3-0.9V13.2z M36.2,24.1c0.5,0,1.1-0.2,1.6-0.4c0.6-0.3,1.1-0.7,1.6-1.3v1.5h2.8V10.2
			h-2.8v10.4c-0.3,0.3-0.5,0.5-0.9,0.7c-0.3,0.2-0.6,0.3-0.8,0.3c-0.3,0-0.5-0.1-0.6-0.2c-0.1-0.1-0.2-0.4-0.2-0.7V10.2h-2.8v11.4
			c0,0.8,0.2,1.4,0.5,1.8C35.1,23.9,35.6,24.1,36.2,24.1z"/>
	</symbol>


</svg>
