<svg xmlns="http://www.w3.org/2000/svg" viewBox="0 0 47.48 51.84"><title>calculator</title><path d="M48.74,9.44,18,2.53a4.39,4.39,0,0,0-5.13,3.25L4.7,42.12A4.42,4.42,0,0,0,8,47.26l30.77,6.91a4.39,4.39,0,0,0,5.13-3.25L52,14.58A4.42,4.42,0,0,0,48.74,9.44ZM16.45,42.12a1.23,1.23,0,0,1-1.36.87l-3.36-.76a1.24,1.24,0,0,1-.87-1.37l.75-3.35A1.23,1.23,0,0,1,13,36.64l3.36.75a1.24,1.24,0,0,1,.87,1.37ZM19,30.94a1.23,1.23,0,0,1-1.37.86l-3.36-.75a1.24,1.24,0,0,1-.87-1.37l.75-3.36a1.23,1.23,0,0,1,1.37-.86l3.36.75a1.24,1.24,0,0,1,.87,1.37Zm8.68,13.69a1.23,1.23,0,0,1-1.37.87l-3.35-.75a1.23,1.23,0,0,1-.87-1.37L22.8,40a1.24,1.24,0,0,1,1.37-.87l3.35.76a1.23,1.23,0,0,1,.87,1.37l-.75,3.35Zm2.51-11.18a1.24,1.24,0,0,1-1.37.87l-3.36-.76a1.24,1.24,0,0,1-.87-1.37l.75-3.35A1.24,1.24,0,0,1,26.67,28l3.36.76a1.24,1.24,0,0,1,.87,1.37l-.75,3.35Zm8.68,13.7a1.24,1.24,0,0,1-1.37.87l-3.36-.76a1.22,1.22,0,0,1-.86-1.37l3.25-14.54a1.23,1.23,0,0,1,1.37-.86l3.36.75a1.23,1.23,0,0,1,.86,1.37L38.83,47.15Zm5-22.37a1.23,1.23,0,0,1-1.37.87L16.74,19.87a1.23,1.23,0,0,1-.87-1.37l2-8.95a1.24,1.24,0,0,1,1.37-.87L45,14.47a1.24,1.24,0,0,1,.87,1.37Z" transform="translate(-4.61 -2.43)" fill="#1d1d1b" fill-rule="evenodd"/></svg>