<svg xmlns="http://www.w3.org/2000/svg" viewBox="0 0 49.2 40.11"><title>mail</title><path d="M44.06,8.34,7.38,14A4.32,4.32,0,0,0,3.8,18.91l4,25.79a4.32,4.32,0,0,0,4.89,3.66l36.68-5.62a4.32,4.32,0,0,0,3.58-5L49,12A4.32,4.32,0,0,0,44.06,8.34Zm.66,4.3.56,3.66c-1.73,1.94-4.49,5-10.41,11.35-1.3,1.42-3.81,4.72-5.86,5s-5.42-2-7.09-3c-7.56-4.33-11.1-6.39-13.33-7.73L8,18.26ZM12,44.06,9.44,27.43c2.27,1.33,5.49,3.18,10.38,6C22,34.66,25.88,37.55,29.67,37s6.59-4.42,8.33-6.31c3.83-4.15,6.35-6.88,8.12-8.82l2.55,16.62Z" transform="translate(-3.75 -8.29)" fill="#1d1d1b" fill-rule="evenodd"/></svg>