<svg xmlns="http://www.w3.org/2000/svg" viewBox="0 0 42.93 56"><title>phone</title><path d="M32.55.51,10.5,6.3a4.81,4.81,0,0,0-3.45,5.91l11.1,40.54a4.93,4.93,0,0,0,6,3.44L46.2,50.4a4.81,4.81,0,0,0,3.45-5.91L38.55,4A4.93,4.93,0,0,0,32.55.51Zm1.77,49.67a3.29,3.29,0,0,1-4-2.29,3.2,3.2,0,0,1,2.3-4,3.28,3.28,0,0,1,4,2.29A3.2,3.2,0,0,1,34.32,50.18Zm8.15-13.42a1.21,1.21,0,0,1-.86,1.48L21.92,43.4a1.23,1.23,0,0,1-1.5-.85L12.1,12.14A1.2,1.2,0,0,1,13,10.66L32.65,5.5a1.24,1.24,0,0,1,1.5.86Z" transform="translate(-6.88 -0.35)" fill="#1d1d1b" fill-rule="evenodd"/></svg>