<svg xmlns="http://www.w3.org/2000/svg" width="132" height="114" viewBox="0 0 132 114"><defs><style>.a{fill:#666;}.b{fill:#bebcae;}</style></defs><g transform="translate(-140 -63)"><path class="a" d="M48,96A48.013,48.013,0,0,1,29.316,3.772a48.185,48.185,0,0,1,35.228-.845A39.875,39.875,0,0,0,64,9.5c0,6.515.663,13.7,1.4,21.112A28,28,0,1,0,64,78.253l0,0c5.819-2.905,17.47-8.964,30.117-16.9A47.954,47.954,0,0,1,48,96Z" transform="translate(140 81)"/><path class="b" d="M0,30.38q0-.583.026-1.161Q0,28.612,0,28A28.007,28.007,0,0,1,53.8,17.1a28.021,28.021,0,0,1-34.1,37.65,48.993,48.993,0,0,1,1.231,8.67A238.428,238.428,0,0,1,0,75.258C4.843,63.674,0,44.619,0,30.38ZM19,29a9,9,0,1,0,9-9A9.01,9.01,0,0,0,19,29Z" transform="translate(216 63)"/><circle class="b" cx="12.5" cy="12.5" r="12.5" transform="translate(178 122)"/></g></svg>