<?xml version="1.0" encoding="utf-8"?>
<!-- Generator: Adobe Illustrator 24.0.2, SVG Export Plug-In . SVG Version: 6.00 Build 0)  -->
<svg version="1.1" id="Calque_1" xmlns="http://www.w3.org/2000/svg" xmlns:xlink="http://www.w3.org/1999/xlink" x="0px" y="0px"
	 viewBox="0 0 70.9 70.9" style="enable-background:new 0 0 70.9 70.9;" xml:space="preserve">
<style type="text/css">
	.st0{fill:#EAC474;}
</style>
<path class="st0" d="M36.7,39.8V27.7c1.8,0.3,3.4,1.2,4.6,2.5l1.7-1.7c-1.9-2-4.6-3.3-7.5-3.3c-3,0-5.7,1.3-7.5,3.3l1.7,1.7
	c1.2-1.3,2.8-2.2,4.6-2.5v12.1H36.7z M34.2,2.4V0C15.7,0.7,0.7,15.7,0,34.2h2.4C3.1,17,17,3.1,34.2,2.4z M68.5,34.2h2.4
	C70.3,15.7,55.3,0.7,36.7,0v2.4C53.9,3.1,67.8,17,68.5,34.2z M65.3,35.5c0-0.4,0-0.8-0.1-1.2H45.7c-0.2-1.4-0.6-2.7-1.3-3.8
	l-1.8,1.8c0.5,1,0.7,2.1,0.7,3.2c0,4.4-3.6,7.9-7.9,7.9c-4.4,0-7.9-3.6-7.9-7.9c0-1.2,0.3-2.3,0.7-3.2l-1.8-1.8
	c-0.7,1.2-1.1,2.5-1.3,3.8H8.1C8.7,19.7,20.7,8,35.5,8c13.9,0,25.4,10.4,27.2,23.8h2.5C63.3,17,50.8,5.6,35.5,5.6
	C19,5.6,5.6,18.9,5.6,35.4c0,0.4,0,0.8,0.1,1.2h16.5l0,0h3.2c0.6,5.1,5,9.1,10.2,9.1s9.6-4,10.2-9.1h17.2
	c-0.7,14.6-12.7,26.3-27.4,26.3c-13.9,0-25.4-10.4-27.2-23.8H5.8c1.8,14.8,14.4,26.3,29.7,26.3C51.9,65.3,65.3,51.9,65.3,35.5z
	 M68.5,36.7c-0.6,17.3-14.6,31.2-31.8,31.8v2.4c18.6-0.7,33.6-15.7,34.2-34.2C70.9,36.7,68.5,36.7,68.5,36.7z M2.4,36.7H0
	c0.7,18.6,15.7,33.6,34.2,34.2v-2.4C17,67.8,3.1,53.9,2.4,36.7z"/>
</svg>
